<?xml version="1.0" standalone="no"?>
<!DOCTYPE svg PUBLIC "-//W3C//DTD SVG 20010904//EN"
 "http://www.w3.org/TR/2001/REC-SVG-20010904/DTD/svg10.dtd">
<svg version="1.0" xmlns="http://www.w3.org/2000/svg"
 width="850.000000pt" height="850.000000pt" viewBox="0 0 850.000000 850.000000"
 preserveAspectRatio="xMidYMid meet">
<metadata>
Created by potrace 1.16, written by Peter Selinger 2001-2019
</metadata>
<g transform="translate(0.000000,850.000000) scale(0.100000,-0.100000)"
fill="currentColor" stroke="none">
<path d="M621 7236 c-10 -12 20 -72 161 -315 l173 -301 661 0 661 0 500 -867
c276 -478 709 -1228 963 -1668 254 -440 474 -821 489 -847 18 -33 33 -48 46
-48 17 0 85 111 358 584 213 370 335 590 331 600 -5 14 -45 16 -339 16 l-332
0 -521 903 c-286 496 -657 1138 -824 1427 l-303 525 -1006 3 c-865 2 -1008 0
-1018 -12z"/>
<path d="M3262 7233 c-7 -14 83 -179 412 -748 232 -401 533 -921 668 -1155
l245 -425 642 -3 c354 -1 641 -6 639 -10 -3 -8 -297 -518 -1276 -2212 -170
-294 -313 -534 -317 -533 -4 1 -522 892 -1150 1980 l-1142 1978 -346 3 c-325
2 -347 1 -356 -16 -10 -19 -25 8 524 -942 277 -480 688 -1192 1066 -1847 1119
-1939 1402 -2428 1404 -2430 1 -2 514 885 1140 1970 627 1084 1438 2490 1803
3122 365 633 677 1173 693 1201 51 89 67 85 -333 82 l-350 -3 -495 -857 -495
-858 -638 0 c-541 0 -639 2 -649 14 -12 15 -621 1067 -621 1073 0 2 438 3 973
3 l973 0 172 299 c113 195 170 304 166 315 -6 15 -136 16 -1675 16 -1579 0
-1669 -1 -1677 -17z"/>
</g>
</svg>
