<svg width="216" height="189" viewBox="0 0 216 189" fill="none" xmlns="http://www.w3.org/2000/svg">
<path d="M0.264518 1.1765C-0.0296 1.52944 0.852753 3.29415 4.99981 10.4412L10.088 19.2941H29.5292H48.9704L63.6763 44.7942C71.7939 58.853 84.5292 80.9118 91.9998 93.853C99.4704 106.794 105.941 118 106.382 118.765C106.912 119.735 107.353 120.177 107.735 120.177C108.235 120.177 110.235 116.912 118.265 103C124.529 92.1177 128.117 85.6471 128 85.353C127.853 84.9412 126.676 84.8824 118.029 84.8824H108.265L92.941 58.3236C84.5292 43.7353 73.6175 24.853 68.7057 16.353L59.7939 0.911792L30.2057 0.823557C4.76452 0.764733 0.558635 0.823557 0.264518 1.1765Z" fill="black"/>
<path d="M77.9408 1.26482C77.7349 1.67658 80.382 6.52952 90.0585 23.2648C96.882 35.0589 105.735 50.353 109.706 57.2354L116.911 69.7354L135.794 69.8236C146.206 69.853 154.647 70.0001 154.588 70.1178C154.5 70.353 145.853 85.353 117.058 135.177C112.058 143.824 107.853 150.882 107.735 150.853C107.617 150.824 92.382 124.618 73.9114 92.6178L40.3232 34.4413L30.1467 34.3531C20.5879 34.2942 19.9408 34.3236 19.6761 34.8236C19.382 35.3825 18.9408 34.5883 35.0879 62.5295C43.2349 76.6472 55.3232 97.5883 66.4408 116.853C99.3526 173.882 107.676 188.265 107.735 188.324C107.764 188.382 122.853 162.294 141.264 130.382C159.706 98.5001 183.558 57.1472 194.294 38.5589C205.029 19.9413 214.206 4.05894 214.676 3.23541C216.176 0.617759 216.647 0.735406 204.882 0.823641L194.588 0.911876L180.029 26.1178L165.47 51.353H146.706C130.794 51.353 127.911 51.2942 127.617 50.9413C127.264 50.5001 109.353 19.5589 109.353 19.3825C109.353 19.3236 122.235 19.2942 137.97 19.2942H166.588L171.647 10.5001C174.97 4.76482 176.647 1.55894 176.529 1.23541C176.353 0.794229 172.529 0.764818 127.264 0.764818C80.8232 0.764818 78.1761 0.794229 77.9408 1.26482Z" fill="black"/>
</svg>
